<svg width="512" height="512" viewBox="0 0 512 512" fill="none" xmlns="http://www.w3.org/2000/svg">
<g clip-path="url(#clip0_404_10)">
<path d="M512 0H0V512H512V0Z" fill="url(#paint0_linear_404_10)"/>
<path d="M43.8626 267.393C39.0423 265.364 34.7294 262.319 30.9239 258.768C27.3721 255.216 24.3277 250.903 22.2981 245.829C20.2685 241.009 19 235.681 19 229.846C19 224.264 20.0148 218.937 22.2981 213.863C24.3277 209.042 27.3721 204.729 30.9239 200.924C34.7294 197.118 38.7886 194.328 43.8626 192.298C48.6829 190.269 54.0106 189 59.8457 189H203.694C207.753 189 211.305 190.522 214.095 193.313C216.886 196.357 218.155 199.655 218.155 203.968C218.155 208.028 216.632 211.579 213.842 214.37C211.051 217.161 207.499 218.683 203.44 218.683H59.0846C56.0402 218.683 53.2495 219.698 50.9662 221.981C48.6829 224.011 47.4144 226.801 47.4144 230.099C47.4144 233.144 48.6829 235.935 50.9662 237.964C53.2495 240.247 56.0402 241.262 59.0846 241.262H183.144C188.979 241.262 194.307 242.277 199.127 244.56C204.201 246.59 208.514 249.634 212.066 253.186C215.618 256.738 218.662 261.305 220.692 266.125C222.721 271.199 223.99 276.527 223.99 282.108C223.99 287.943 222.975 293.271 220.692 298.091C218.408 302.911 215.618 307.224 212.066 311.03C208.514 314.582 203.947 317.626 199.127 319.656C194.053 321.685 188.725 322.7 183.144 322.7H33.7146C29.6554 322.7 26.1036 321.178 23.3129 318.387C20.5222 315.596 19 312.045 19 307.985C19 303.926 20.5222 300.374 23.3129 297.584C26.1036 294.793 29.6554 293.271 33.7146 293.271H184.413C187.457 293.271 189.994 292.256 192.277 289.973C194.561 287.943 195.575 285.152 195.575 282.108C195.575 278.81 194.561 276.019 192.277 273.736C189.994 271.453 187.457 270.438 184.413 270.438H59.592C54.0106 270.691 48.6829 269.677 43.8626 267.393Z" fill="black"/>
<path d="M266.611 318.387C263.821 321.178 260.269 322.7 256.21 322.7C252.151 322.7 248.599 321.178 245.808 318.387C243.017 315.596 241.495 312.045 241.495 307.985V255.723C241.495 251.664 243.017 248.112 245.808 245.321C248.599 242.531 252.151 241.009 256.21 241.009C260.269 241.009 263.821 242.531 266.611 245.321C269.402 248.112 270.924 251.664 270.924 255.723V307.985C270.924 312.045 269.402 315.596 266.611 318.387Z" fill="black"/>
<path d="M319.127 319.402C314.053 317.372 309.487 314.328 305.681 310.776C301.876 307.224 298.831 302.912 296.548 297.838C294.265 293.017 293.25 287.69 293.25 281.854V203.969C293.25 199.909 294.772 196.358 297.563 193.567C300.353 190.776 303.905 189.254 307.964 189.254C311.77 189.254 315.322 190.776 318.113 193.567C321.157 196.358 322.425 199.909 322.425 203.969V281.854C322.425 284.899 323.694 287.69 325.977 289.719C328.261 292.002 331.051 293.017 334.096 293.017H479.212C483.271 293.017 486.823 294.539 489.614 297.33C492.405 300.121 493.927 303.673 493.927 307.732C493.927 311.791 492.405 315.343 489.614 318.134C486.823 320.924 483.271 322.447 479.212 322.447H335.11C329.529 322.7 324.201 321.685 319.127 319.402Z" fill="black"/>
<path d="M276.506 209.804C276.506 221.22 267.372 230.353 255.956 230.353C244.539 230.353 235.406 221.22 235.406 209.804C235.406 198.387 244.539 189.254 255.956 189.254C267.119 189.254 276.506 198.387 276.506 209.804Z" fill="#E30613"/>
</g>
<defs>
<linearGradient id="paint0_linear_404_10" x1="0" y1="0" x2="0.707107" y2="0.707107" gradientUnits="userSpaceOnUse">
<stop stop-color="#E30613"/>
<stop offset="1" stop-color="white"/>
</linearGradient>
<clipPath id="clip0_404_10">
<rect width="512" height="512" fill="white"/>
</clipPath>
</defs>
</svg>
