<svg xmlns="http://www.w3.org/2000/svg" width="512" height="512" viewBox="0 0 512 512"><defs><linearGradient id="icon-studio-bg" x1="0.146" y1="0.854" x2="0.854" y2="0.146"><stop offset="0" stop-color="#3F5EFB"/><stop offset="1" stop-color="#FC466B"/></linearGradient></defs><rect width="512" height="512" fill="url(#icon-studio-bg)"/><g transform="translate(115.2 115.2) scale(11.733)" fill="none" stroke="#FFFFFF" stroke-width="2" stroke-linecap="round" stroke-linejoin="round"><path d="M11.017 2.814a1 1 0 0 1 1.966 0l1.051 5.558a2 2 0 0 0 1.594 1.594l5.558 1.051a1 1 0 0 1 0 1.966l-5.558 1.051a2 2 0 0 0-1.594 1.594l-1.051 5.558a1 1 0 0 1-1.966 0l-1.051-5.558a2 2 0 0 0-1.594-1.594l-5.558-1.051a1 1 0 0 1 0-1.966l5.558-1.051a2 2 0 0 0 1.594-1.594z"/><path d="M20 2v4"/><path d="M22 4h-4"/><circle cx="4" cy="20" r="2"/></g></svg>