<svg xmlns:xlink="http://www.w3.org/1999/xlink" width="512" height="512" viewBox="0 0 512 512" fill="none"
     xmlns="http://www.w3.org/2000/svg" class="">
    <rect id="_r_9_" width="512" height="512" x="0" y="0" rx="0" fill="url(#_r_a_)" stroke="#FFFFFF" stroke-width="0"
          stroke-opacity="100%" paint-order="stroke"></rect>
    <clipPath id="clip">
        <use xlink:href="#_r_9_"></use>
    </clipPath>
    <defs>
        <radialGradient id="_r_a_" cx="50%" cy="50%" r="100%" fx="50%" fy="50%" gradientUnits="objectBoundingBox">
            <stop stop-color="#f95356"></stop>
            <stop offset="1" stop-color="#7e0000"></stop>
        </radialGradient>
        <radialGradient id="_r_b_" cx="0" cy="0" r="1" gradientUnits="userSpaceOnUse"
                        gradientTransform="translate(256) rotate(90) scale(512)">
            <stop stop-color="white"></stop>
            <stop offset="1" stop-color="white" stop-opacity="0"></stop>
        </radialGradient>
    </defs>
    <svg xmlns="http://www.w3.org/2000/svg" fill="none" viewBox="0 0 16 16" width="352" height="352" x="80" y="80"
         alignment-baseline="middle" style="color: rgb(255, 213, 213); width: 352px; height: 352px;">
        <path fill="currentColor" fill-rule="evenodd"
              d="M4.136 1H4.865c.401 0 .748 0 1.034.024.301.025.6.08.888.23.411.213.746.548.96.959.149.287.204.587.23.888C8 3.387 8 3.734 8 4.136v7.729c0 .401 0 .748-.024 1.034-.025.301-.08.6-.23.888a2.25 2.25 0 0 1-.959.96c-.287.149-.587.204-.888.23C5.613 15 5.266 15 4.864 15H4.135c-.401 0-.748 0-1.034-.024-.301-.025-.6-.08-.888-.23a2.25 2.25 0 0 1-.96-.959c-.149-.287-.204-.587-.23-.888A13.435 13.435 0 0 1 1 11.864V4.135c0-.401 0-.748.024-1.034.025-.301.08-.6.23-.888a2.25 2.25 0 0 1 .959-.96c.287-.149.587-.204.888-.23C3.387 1 3.734 1 4.136 1Zm-.91 1.519c-.208.017-.284.046-.322.065a.75.75 0 0 0-.32.32c-.02.038-.048.114-.065.321-.018.216-.019.5-.019.94v7.67c0 .44 0 .724.019.94.017.207.046.283.065.32a.75.75 0 0 0 .32.32c.038.02.114.05.321.067.216.017.5.018.94.018h.67c.44 0 .724 0 .94-.018.207-.018.283-.047.32-.066a.75.75 0 0 0 .32-.32c.02-.038.05-.114.066-.321.018-.216.019-.5.019-.94v-7.67c0-.44 0-.724-.019-.94-.017-.207-.046-.283-.065-.32a.75.75 0 0 0-.32-.32c-.038-.02-.114-.05-.321-.066-.216-.018-.5-.019-.94-.019h-.67c-.44 0-.724 0-.94.019ZM11.975 8h.048c.329 0 .613 0 .848.016.247.017.495.054.739.155.551.229.99.667 1.218 1.218.101.244.138.492.155.74.016.234.016.518.016.847v1.048c0 .329 0 .613-.016.848a2.3 2.3 0 0 1-.155.739 2.25 2.25 0 0 1-1.218 1.218 2.3 2.3 0 0 1-.74.155c-.234.016-.518.016-.847.016h-.048c-.329 0-.613 0-.848-.016a2.3 2.3 0 0 1-.739-.155 2.25 2.25 0 0 1-1.218-1.218 2.301 2.301 0 0 1-.155-.74C9 12.638 9 12.354 9 12.025v-1.048c0-.329 0-.613.016-.848.017-.247.054-.495.155-.739a2.25 2.25 0 0 1 1.218-1.218c.244-.101.492-.138.74-.155.234-.016.518-.016.847-.016Zm-.746 1.513a.87.87 0 0 0-.267.044.75.75 0 0 0-.406.406.871.871 0 0 0-.045.267c-.012.178-.012.41-.012.77v1c0 .36 0 .592.012.77a.871.871 0 0 0 .045.267.75.75 0 0 0 .406.406.871.871 0 0 0 .267.045c.178.012.41.012.77.012.36 0 .592 0 .77-.012a.871.871 0 0 0 .267-.045.75.75 0 0 0 .406-.406.871.871 0 0 0 .045-.267c.012-.178.012-.41.012-.77v-1c0-.36 0-.592-.012-.77a.871.871 0 0 0-.045-.267.75.75 0 0 0-.406-.406.87.87 0 0 0-.267-.044C12.592 9.5 12.36 9.5 12 9.5c-.36 0-.592 0-.77.013ZM12 1h-.024c-.329 0-.613 0-.848.016a2.301 2.301 0 0 0-.739.155A2.25 2.25 0 0 0 9.171 2.39a2.302 2.302 0 0 0-.155.74C9 3.362 9 3.646 9 3.975v.048c0 .329 0 .613.016.848.017.247.054.495.155.739.229.551.667.99 1.218 1.218.244.101.492.138.74.155.234.016.518.016.847.016h.048c.329 0 .613 0 .848-.016.247-.017.495-.054.739-.155a2.25 2.25 0 0 0 1.218-1.218c.101-.244.138-.492.155-.74.016-.234.016-.518.016-.847v-.048c0-.329 0-.613-.016-.848a2.301 2.301 0 0 0-.155-.739 2.25 2.25 0 0 0-1.218-1.218 2.301 2.301 0 0 0-.74-.155C12.638 1 12.354 1 12.025 1H12Zm-1.037 1.557a.87.87 0 0 1 .267-.044c.178-.013.41-.013.77-.013.36 0 .592 0 .77.013a.87.87 0 0 1 .267.044.75.75 0 0 1 .406.406.871.871 0 0 1 .045.267c.012.178.012.41.012.77 0 .36 0 .592-.012.77a.871.871 0 0 1-.045.267.75.75 0 0 1-.406.406.87.87 0 0 1-.267.044c-.178.013-.41.013-.77.013-.36 0-.592 0-.77-.013a.87.87 0 0 1-.267-.044.75.75 0 0 1-.406-.406.871.871 0 0 1-.045-.267C10.5 4.592 10.5 4.36 10.5 4c0-.36 0-.592.012-.77a.871.871 0 0 1 .045-.267.75.75 0 0 1 .406-.406Z"
              clip-rule="evenodd"></path>
    </svg>
</svg>
